Coordinates
version=1
nRows=6
nColumns=63
inDegrees=yes

Units are S.I. units (second, meters, Newtons, ...)
If the header above contains a line with 'inDegrees', this indicates whether rotational values are in degrees (yes) or radians (no).

endheader
time	pelvis_tilt	pelvis_list	pelvis_rotation	pelvis_tx	pelvis_ty	pelvis_tz	hip_flexion_r	hip_adduction_r	hip_rotation_r	knee_angle_r	knee_angle_r_beta	ankle_angle_r	subtalar_angle_r	mtp_angle_r	hip_flexion_l	hip_adduction_l	hip_rotation_l	knee_angle_l	knee_angle_l_beta	ankle_angle_l	subtalar_angle_l	mtp_angle_l	L5_S1_Flex_Ext	L5_S1_Lat_Bending	L5_S1_axial_rotation	L4_L5_Flex_Ext	L4_L5_Lat_Bending	L4_L5_axial_rotation	L3_L4_Flex_Ext	L3_L4_Lat_Bending	L3_L4_axial_rotation	L2_L3_Flex_Ext	L2_L3_Lat_Bending	L2_L3_axial_rotation	L1_L2_Flex_Ext	L1_L2_Lat_Bending	L1_L2_axial_rotation	L1_T12_Flex_Ext	L1_T12_Lat_Bending	L1_T12_axial_rotation	Abs_r3	Abs_r2	Abs_r1	Abs_t1	Abs_t2	neck_flexion	neck_bending	neck_rotation	arm_flex_r	arm_add_r	arm_rot_r	elbow_flex_r	pro_sup_r	wrist_flex_r	wrist_dev_r	arm_flex_l	arm_add_l	arm_rot_l	elbow_flex_l	pro_sup_l	wrist_flex_l	wrist_dev_l
      0.91379310	     -2.96174667	     -0.59646653	     81.66612259	      0.20729303	      0.95423413	      0.41871135	      2.65824779	      1.44615667	     12.64943676	     19.82563039	      0.34602253	     32.63739535	     -9.46312228	      0.00000000	      1.84125249	      1.33932100	     -0.61205258	     16.43203325	      0.28679308	     31.01227340	    -15.99988583	      0.00000000	     -0.28580737	     -0.28861328	      0.87162986	     -0.53077287	     -0.38385567	      0.92610673	     -0.46955293	     -0.70173434	      0.92610673	     -0.32664925	     -0.70173434	      0.76267613	     -0.26540073	     -0.58854021	      0.70819927	     -0.16331033	     -0.44706198	      0.65372240	     -2.04149348	     -3.26485119	      4.84774382	      0.00000000	      0.00000000	     12.41895703	      3.28111767	     -3.22065033	     71.18308518	    -37.68445242	    -13.04573902	    103.91569010	     88.15600631	    -12.15573121	      2.40892939	    -37.00389664	   -125.78043420	   -104.17522706	     72.63411564	     87.95360709	    -18.30577302	      7.94803885
      0.93103448	     -3.45363929	     -0.86731033	     81.45497321	      0.20828032	      0.95352311	      0.41764171	      3.12441089	      1.09227358	     13.13997497	     20.19665604	      0.35249815	     32.86971078	     -9.80538545	      0.00000000	      2.00267706	      1.73833910	     -1.12037033	     16.13692247	      0.28164243	     30.97402067	    -15.88040219	      0.00000000	     -0.26840266	     -0.34111343	      0.71564494	     -0.49845058	     -0.45368087	      0.76037274	     -0.44095873	     -0.82938320	      0.76037274	     -0.30675740	     -0.82938320	      0.62618932	     -0.24923871	     -0.69559851	      0.58146151	     -0.15336528	     -0.52838471	      0.53673370	     -1.91717337	     -3.85874339	      3.98020244	      0.00000000	      0.00000000	     13.15149513	      3.52332529	     -2.04290608	     70.32505677	    -37.07129675	    -15.24363079	    110.59865511	     88.67278712	    -13.80441309	      1.62563543	    -38.28254799	   -121.58897587	   -111.10101761	     81.59441528	     88.43363289	    -19.83763718	      7.64110760
      0.94827586	     -3.28822285	     -1.16162985	     81.11225408	      0.20788911	      0.95340875	      0.41630515	      3.29377916	      1.21545460	     13.24204287	     20.05594966	      0.35004236	     32.76845087	     -9.45706058	      0.00000000	      2.12044068	      1.55086252	     -1.64040732	     15.91457529	      0.27776174	     31.16598253	    -15.88885776	      0.00000000	     -0.25426705	     -0.30201629	      0.81740067	     -0.47219934	     -0.40168167	      0.86848821	     -0.41773533	     -0.73432241	      0.86848821	     -0.29060181	     -0.73432241	      0.71522559	     -0.23611238	     -0.61587162	      0.66413804	     -0.14528819	     -0.46782324	      0.61305050	     -1.81620410	     -3.41646871	      4.54613730	      0.00000000	      0.00000000	     13.88923680	      2.78475722	     -3.06269391	     69.52266625	    -38.91321488	    -17.61163951	    117.08446916	     88.97691940	    -16.71158479	      0.44142960	    -45.38153867	   -118.88330056	   -125.02852300	     90.47807870	     88.59119826	    -16.87578385	      7.91214510
      0.96551724	     -3.24778503	     -1.43876855	     80.91508739	      0.20755609	      0.95344377	      0.41492161	      3.38385466	      1.18654442	     13.14750124	     19.76829578	      0.34502185	     32.66731644	     -9.03313385	      0.00000000	      2.26527867	      1.48162827	     -2.00561645	     15.73877463	      0.27469344	     31.30095716	    -15.74918895	      0.00000000	     -0.23314118	     -0.28494405	      0.82963729	     -0.43296649	     -0.37897558	      0.88148962	     -0.38302765	     -0.69281296	      0.88148962	     -0.26645706	     -0.69281296	      0.72593262	     -0.21649490	     -0.58105790	      0.67408029	     -0.13321687	     -0.44137833	      0.62222796	     -1.66530416	     -3.22334405	      4.61419369	      0.00000000	      0.00000000	     14.49222570	      2.29034332	     -3.74019086	     68.86359337	    -40.26351785	    -20.68539916	    123.00311267	     89.15490245	    -18.01394395	     -0.01281518	    -50.73897349	   -116.42749007	   -135.99194445	     99.16320122	     88.42167373	    -15.27248761	      8.94876393
      0.98275862	     -3.27909259	     -1.61703973	     80.77655314	      0.20729589	      0.95373846	      0.41362017	      3.29134708	      1.02056362	     12.81133324	     19.28084861	      0.33651429	     32.61562624	     -8.24653931	      0.00000000	      2.30753616	      1.51918907	     -2.14571179	     15.55396522	      0.27146790	     31.30754941	    -15.65252163	      0.00000000	     -0.21363755	     -0.28892517	      0.88915022	     -0.39674629	     -0.38427048	      0.94472211	     -0.35098513	     -0.70249266	      0.94472211	     -0.24416635	     -0.70249266	      0.77800644	     -0.19838383	     -0.58917621	      0.72243455	     -0.12207249	     -0.44754509	      0.66686267	     -1.52599164	     -3.26837930	      4.94518678	      0.00000000	      0.00000000	     14.93470185	      2.30239515	     -4.79285155	     67.93006557	    -42.05469975	    -25.25817577	    128.68948846	     89.22712275	    -16.98710482	      1.48758783	    -56.49400199	   -115.40534969	   -147.48594161	    106.62679913	     87.85690329	    -12.21791804	     10.19725737
      1.00000000	     -3.25086454	     -1.69545484	     80.69583845	      0.20696121	      0.95420580	      0.41258513	      3.02342526	      0.87760909	     12.32609222	     18.63700700	      0.32527713	     32.48086753	     -7.38096859	      0.00000000	      2.27728592	      1.51682584	     -2.16542755	     15.45812670	      0.26979521	     31.29404357	    -15.49303333	      0.00000000	     -0.20009698	     -0.29203877	      0.94849325	     -0.37160011	     -0.38841156	      1.00777408	     -0.32873933	     -0.71006306	      1.00777408	     -0.22869084	     -0.71006306	      0.82993160	     -0.18581006	     -0.59552545	      0.77065077	     -0.11433542	     -0.45236805	      0.71136994	     -1.42927275	     -3.30360095	      5.27523493	      0.00000000	      0.00000000	     15.13976750	      2.23721729	     -6.03700499	     67.26475839	    -44.09731539	    -30.54693452	    133.77803215	     89.21509135	    -14.19242274	      5.44645613	    -61.16619482	   -115.58692653	   -157.83437928	    112.60033521	     85.85906421	     -9.16350984	     12.31042897
